<?xml version="1.0" standalone="no"?>
<!DOCTYPE svg PUBLIC "-//W3C//DTD SVG 20010904//EN"
 "http://www.w3.org/TR/2001/REC-SVG-20010904/DTD/svg10.dtd">
<svg version="1.0" xmlns="http://www.w3.org/2000/svg"
 width="500.000000pt" height="500.000000pt" viewBox="0 0 500.000000 500.000000"
 preserveAspectRatio="xMidYMid meet">

<g transform="translate(0.000000,500.000000) scale(0.100000,-0.100000)"
fill="#000000" stroke="none">
<path d="M1650 4784 c-81 -21 -157 -78 -207 -152 -79 -118 -73 65 -71 -2153
l3 -1985 38 -76 c43 -87 98 -142 186 -185 l56 -28 809 -3 c547 -2 826 1 861 8
112 23 212 107 267 224 l33 71 0 1995 0 1995 -32 68 c-43 90 -117 167 -196
203 l-62 29 -815 2 c-689 2 -823 0 -870 -13z m1731 -67 c69 -33 132 -99 167
-175 l27 -57 3 -1965 3 -1965 -22 -68 c-27 -83 -95 -164 -173 -205 l-51 -27
-660 0 -660 0 -51 27 c-89 47 -150 122 -178 220 -15 48 -16 256 -14 2018 l3
1965 28 60 c46 100 130 172 224 194 21 5 320 9 668 8 l630 -2 56 -28z"/>
<path d="M1892 4585 c-104 -87 27 -257 133 -173 88 69 49 198 -61 198 -31 0
-51 -7 -72 -25z m110 -42 c36 -32 13 -95 -35 -95 -36 0 -57 19 -57 53 0 52 53
77 92 42z"/>
<path d="M3324 4592 c-52 -42 -59 -115 -16 -162 50 -56 134 -50 172 12 31 51
26 94 -14 134 -28 28 -41 34 -77 34 -27 0 -53 -7 -65 -18z m91 -38 c51 -20 31
-104 -25 -104 -55 0 -78 52 -40 90 21 21 37 24 65 14z"/>
<path d="M2585 4534 c-170 -28 -336 -116 -462 -245 -55 -57 -77 -100 -68 -129
9 -29 43 -30 121 -5 41 12 74 21 74 19 0 -2 -16 -27 -36 -55 -58 -80 -94 -196
-94 -304 0 -305 221 -544 520 -562 165 -10 310 46 430 166 135 136 189 330
145 519 -17 72 -61 164 -102 213 -23 27 -24 32 -8 25 50 -21 146 -44 164 -39
52 13 33 71 -52 160 -91 95 -213 169 -352 213 -69 21 -216 34 -280 24z"/>
<path d="M2523 3185 c-140 -31 -340 -152 -423 -256 -46 -58 -58 -93 -40 -114
17 -20 46 -19 121 5 35 10 64 18 65 17 2 -1 -15 -28 -36 -59 -60 -90 -82 -158
-88 -273 -8 -173 42 -308 157 -425 121 -122 301 -186 462 -162 213 31 391 173
460 369 30 83 36 228 14 313 -20 79 -58 160 -92 201 -14 16 -23 32 -21 34 3 3
31 -4 63 -15 69 -24 108 -25 125 -5 18 22 5 57 -44 118 -87 106 -266 214 -417
251 -78 19 -220 20 -306 1z m309 -367 c152 -70 248 -247 219 -404 -38 -205
-201 -335 -403 -321 -177 12 -313 135 -348 314 -36 183 78 369 263 429 68 22
200 13 269 -18z"/>
<path d="M2515 1811 c-146 -36 -332 -149 -415 -253 -46 -58 -58 -92 -40 -113
17 -20 56 -19 125 5 32 11 60 19 62 17 1 -2 -9 -19 -23 -38 -69 -92 -104 -203
-104 -330 0 -217 118 -405 310 -497 131 -63 232 -75 363 -46 140 32 255 108
336 225 75 107 96 178 96 324 -1 106 -4 128 -28 189 -15 38 -43 91 -63 118
-19 28 -34 51 -32 53 2 2 28 -5 58 -15 97 -34 150 -21 136 34 -10 38 -85 122
-166 183 -189 142 -412 194 -615 144z m318 -369 c135 -63 209 -173 215 -320 5
-102 -9 -154 -59 -232 -129 -200 -412 -228 -582 -58 -117 117 -143 290 -67
445 87 176 310 251 493 165z"/>
<path d="M1918 589 c-15 -6 -37 -26 -49 -45 -39 -63 -7 -140 68 -165 74 -24
158 60 134 134 -22 67 -90 100 -153 76z m92 -68 c23 -45 1 -91 -45 -91 -31 0
-55 25 -55 59 0 36 17 51 57 51 22 0 36 -6 43 -19z"/>
<path d="M3333 580 c-40 -24 -53 -48 -53 -98 0 -65 65 -118 130 -105 40 8 90
65 90 104 0 45 -27 89 -65 105 -45 19 -64 18 -102 -6z m104 -66 c15 -24 15
-29 2 -53 -20 -36 -71 -41 -93 -9 -20 29 -20 47 1 70 24 27 69 23 90 -8z"/>
</g>
</svg>
